<?xml version="1.0" encoding="UTF-8" standalone="no"?>
<svg width="104px" height="106px" viewBox="0 0 104 106" version="1.1" xmlns="http://www.w3.org/2000/svg" xmlns:xlink="http://www.w3.org/1999/xlink">
    <!-- Generator: Sketch 3.8.2 (29753) - http://www.bohemiancoding.com/sketch -->
    <title>Group</title>
    <desc>Created with Sketch.</desc>
    <defs>
        <filter x="-50%" y="-50%" width="200%" height="200%" filterUnits="objectBoundingBox" id="filter-1">
            <feOffset dx="0" dy="0" in="SourceAlpha" result="shadowOffsetOuter1"></feOffset>
            <feGaussianBlur stdDeviation="4" in="shadowOffsetOuter1" result="shadowBlurOuter1"></feGaussianBlur>
            <feColorMatrix values="0 0 0 0 0   0 0 0 0 0   0 0 0 0 0  0 0 0 0.75 0" type="matrix" in="shadowBlurOuter1" result="shadowMatrixOuter1"></feColorMatrix>
            <feMerge>
                <feMergeNode in="shadowMatrixOuter1"></feMergeNode>
                <feMergeNode in="SourceGraphic"></feMergeNode>
            </feMerge>
        </filter>
    </defs>
    <g id="Page-1" stroke="none" stroke-width="1" fill="none" fill-rule="evenodd">
        <g id="region_red" transform="translate(7.000000, 7.000000)">
            <g id="Page-1">
                <g id="region">
                    <g id="Page-1">
                        <g id="noun_222101_cc">
                            <g id="Group" filter="url(#filter-1)">
                                <path d="M3.3,22.7 L3.2,22.8 L3.3,22.7 L3.6,23.2 L3.2,23.5 L4.3,24.5 L2.3,24.8 L3.7,26.2 L2.2,26.9 L0.8,26.9 C1.5,27.3 2.3,28.1 2.3,29.2 L3.5,29.7 L3.5,28.8 L5.3,28.9 L5.6,29.6 L7.7,30 L8.8,31.2 L9.1,31 L9.1,31 L9.2,30.9 L10.5,31.6 L10.8,32.6 L10.8,32.6 L11.6,32.3 L11.6,32.3 L11.7,32.3 L13.6,32.3 L13.7,33.4 L12.8,33.4 L13.3,33.9 L15.6,34 L16.7,33.6 L17.4,32.1 L19,32 L19.8,31.5 L21,31.6 L21.7,31 L22.1,30.6 L23.3,31.4 L24,30.4 L24.2,29.5 L25.4,29.6 L25.4,29.1 L24.7,27.1 L25.5,26.4 L25.7,24.3 L25.6,24.3 L24.4,24.1 L23.6,25.1 L22.1,24.2 L22.1,23.2 L20.8,23.2 L20.5,22.4 L20.5,22.3 L20.1,22.3 L20.1,23 L19.3,23.2 L18.9,22.8 L17.7,23.2 L17.8,22 L16.6,22.2 L14.8,23.1 L13.3,20.7 L12.4,20 L12.5,19.1 L11.4,20 L10,19.9 L7.9,22 L7.5,21 L6.9,22 L5.9,21 L3.6,21.4 L3.1,20.9 L0.8,21.7 L0.8,22.6 L0.2,22.7 L0.5,23.2 L1.9,23.2 L3.3,22.7 L3.3,22.7 L3.3,22.7 L3.3,22.7 Z" id="Shape" fill="#FF7377"></path>
                                <polygon id="Shape" fill="#FF7377" points="36.3 15 38 15.3 37.7 15.3 38 15.4 38 15.9 36.8 15.8 35.9 16.1 36.6 18.2 36.4 20.9 37.6 21.2 37.6 21.3 37.6 21.3 39.1 23.7 41.8 22.7 42.2 20.4 43.8 19.7 43.9 17.5 44.4 16.6 44 16 44.7 13.8 44.3 12.4 43.4 11 43.4 10.3 43.2 10.5 43.2 10.5 43.1 10.6 41.6 11.4 38.9 12.3 36.9 12.8 35.4 13.8 35 14.7 35.7 14.8"></polygon>
                                <polygon id="Shape" fill="#D0011B" points="69.2 38.4 70 37.4 69.8 37.3 69.4 36.9 67.4 36.5 66.4 35.8 66.4 35.8 66.4 35.8 66.4 35.8 66.4 35.4 66.5 34.5 64.5 32.3 64.5 32.3 64.5 32.3 63.7 32.6 61.9 33.5 61.1 33.9 60.5 33.2 58.5 33.3 57.4 30.7 56.2 30.5 56.2 30.5 56.2 30.5 56.2 30.5 56.2 30.5 56.2 30.1 56.3 29.3 55.5 28.8 53.4 28.9 52.1 30.5 52.5 30.6 52.8 30.6 52.9 33.1 52 34.9 52.6 36.4 51.8 37 51.7 38 52.5 39.1 52.3 42.1 52.9 43.3 52.8 43.4 52.8 44.5 52.8 45.1 55.1 45.7 56.5 44.6 57.9 47 59.3 47.7 59.2 49.6 58.7 50.4 59.3 51 60.9 51.2 62.8 49.3 64.4 50.7 64.8 50.2 65.2 47.7 68.1 47.7 68.2 46.5 67 45 68.2 44.6 67.2 43.7 69.5 40.3 69.6 39.4 69.1 38.5 69.1 38.5 69.1 38.5"></polygon>
                                <polygon id="Shape" fill="#D0011B" points="41 63.4 43.9 63.2 44.5 62.3 44.7 61.5 45.5 60.9 45.9 59.5 47.5 59 47.5 57.6 47.5 57.6 47.5 57.5 47.9 56.8 47.1 55.8 47.1 55.7 47.4 55.1 46.5 54.1 46.5 54.1 46.8 54 46.9 54 47.5 53.7 48.3 53.4 48.5 51.8 46.4 49.7 46 48.5 45.4 48.4 42.5 48.3 40.9 48.5 39.2 48.1 37.6 49 35.9 50.6 37.1 52.8 35 54.7 36.6 55.7 36.6 55.7 36.6 55.7 36.6 55.7 38.1 57.6 38.5 57.6 38.5 57.6 38.5 57.6 38.5 57.6 38.5 57.6 38.7 57.6 38.8 57.6 38.8 57.6 39 57.6 39 57.6 39.1 57.6 39 58 38.9 59 38.9 59.1 38.9 59.1 38.9 59.1 38.2 60.1 39.5 61.4 39.5 63.1"></polygon>
                                <polygon id="Shape" fill="#FF7377" points="47.3 7.8 48.6 9.2 51.2 9 50.7 10.2 55.1 10.9 55.7 11.9 57.3 11.4 58.6 11.8 60.3 11.3 61.4 12.3 62.1 11.8 61.7 9 58.7 8.7 58 6.8 56.4 6.5 55.5 3.8 53.4 4.5 52 3.5 51.5 0.9 48.8 1.3 46.4 1.7 45.4 2.5 44.7 7 45.6 7.7"></polygon>
                                <polygon id="Shape" fill="#D0011B" points="38.2 27.6 38.1 28.6 39.6 30.3 38.3 30.4 38.2 32.2 36.7 33.2 36.7 34.4 36.7 34.6 36.4 34.6 33.5 34.8 33.2 37.3 33.2 37.3 33.2 37.3 33.2 37.4 32.1 38.2 32.3 39.1 33.8 39.7 33.8 41.3 35.4 40.9 37.1 43.2 38.3 43.4 38 45.2 39.3 47.6 40.9 48 42.5 47.8 42.5 47.8 42.5 47.8 42.5 47.8 45.4 47.9 46.1 48 48.3 47.2 48.7 45.2 52.3 44.3 52.3 44 52.3 43.4 51.8 42.2 52 39.3 51.2 38.2 51.3 36.7 52 36.2 51.5 34.9 52.4 33 52.3 31 51.2 30.8 48.9 30.4 48.9 30.4 48.8 30.4 48.8 30.4 48.8 30.4 48.1 28.8 45.6 28.8 44.2 26.7 42.6 25.4 42.6 25.3 42.6 25.3 42.6 25.2 42.5 23.8 42.3 23.6 42 23.2 39.2 24.2 39.2 24.4 39.2 25 39.3 25.7 39.2 27.2"></polygon>
                                <polygon id="Shape" fill="#D0011B" points="43 23.6 43 23.7 43.1 25.1 44.5 26.3 44.5 26.3 44.6 26.4 45.8 28.3 48.4 28.3 49.1 30 51.6 30.4 53.1 28.4 55.3 28.3 55.5 26.4 56.3 25.7 55.7 23.2 54.3 21 54.1 21.5 49.8 21.2 48.8 20 47.6 20.4 46.7 19.7 44.1 20.1 42.7 20.8 42.3 22.8 42.8 23.3"></polygon>
                                <polygon id="Shape" fill="#FF7377" points="47.7 19.8 49 19.4 50 20.7 53.8 21 54.2 19.9 56.1 22.9 57.3 22.6 57.2 20 57.2 20 57.2 20 58 20.1 57.4 18.4 60.5 17.9 61.1 15.4 61.1 15.4 61.1 15.3 62.1 13.7 62.1 12.4 61.3 12.9 60.2 11.9 58.6 12.3 57.3 11.9 55.5 12.5 54.8 11.4 50.1 10.6 50.4 9.6 48.4 9.7 47.1 8.3 45.4 8.2 44.5 7.5 44 8.1 44 8.6 44 8.6 43.9 10.9 44.7 12.1 44.7 12.1 44.8 12.2 45.2 13.8 44.5 15.9 45.1 16.6 44.4 17.6 44.3 19.5 46.8 19.2"></polygon>
                                <polygon id="Shape" fill="#D0011B" points="56.1 54 57.2 52.9 57.5 50.3 58.3 50.2 58.8 49.4 58.8 48 57.5 47.3 56.4 45.4 55.2 46.2 52.4 45.5 52.3 44.8 49.1 45.6 48.7 47.6 46.5 48.4 46.9 49.5 49 51.7 48.7 53.8 48.7 53.8 48.7 53.8 48.7 53.8 47.4 54.3 48 55 48 55.1 47.9 55.2 47.7 55.8 48.4 56.7 48 57.7 47.9 59.4 46.3 59.9 46 61.2 45.2 61.8 45 62.6 44.3 63.6 44.1 64.8 45 65.2 44.7 66.7 45 66.8 46.8 67 49.1 63.8 50.1 65.7 50.8 65.7 50.9 66.6 51.1 66 51.6 64.9 53.3 63.8 54.5 64.8 54.6 65.6 54.9 65.6 55.2 64.6 56.1 64.6 56.2 65.4 57.3 65.8 60.1 64.7 60.1 63.8 60.7 63.7 60.9 62.8 61.6 62.8 61.8 61.9 61.2 60.7 60.5 60.8 60.2 60.1 57.7 60.3 58.1 58.7 56.6 55.9 56.9 55.1"></polygon>
                                <polygon id="Shape" fill="#D0011B" points="61.1 17.5 61 18.2 61 18.4 58.2 18.9 58.9 20.8 57.8 20.7 57.9 23.1 56.4 23.5 57 26.1 56 26.7 55.8 28.5 56.9 29.1 56.9 29.1 56.9 29.1 56.9 29.3 56.8 30.1 56.8 30.1 57.8 30.2 58.8 32.8 60.7 32.6 61.3 33.2 61.7 33 62 32.9 62.4 32.7 62.4 32.7 62.4 32.7 63.5 32.2 63.8 32.1 64.2 31.9 64.2 31.9 64.5 31.8 64.7 31.7 64.7 31.7 64.7 31.7 64.8 31.8 64.9 31.9 67.2 34.5 67.1 35.7 67.8 36.2 69.6 36.5 70.7 35.5 71.1 35.9 71.4 35.7 71.3 35 72.6 33.4 71.1 31.8 71.7 31.2 71.7 30 69.9 29.7 70 28.5 67.6 26.5 66.6 26.1 65.9 24.1 67.1 24.2 67.4 22.4 66.6 22 66.9 20 68.3 16.4 69.7 16.8 69.9 16.6 67.6 14.4 66.2 14 66.2 10.7 64.3 12.2 62.6 12.1 62.7 13.8 61.6 15.5"></polygon>
                                <path d="M25.2,46.9 L25.5,47.4 L26.3,47 L25.9,46.6 L25.7,44.3 L26.2,43.6 L24.6,42.2 L24.4,41.1 L22.7,39.5 L22.9,39.1 L26.1,40 L26.9,39.2 L30.8,39.4 L31.6,39 L31.5,38 L32.7,37.2 L32.9,34.4 L36.1,34.2 L36.1,34 L36.1,32.9 L36.2,32.8 L37.6,31.9 L37.7,30.1 L37.7,30.1 L37.7,29.9 L37.7,29.9 L37.7,29.9 L38.4,29.9 L37.6,29 L36.6,28.2 L35.2,27.7 L35.2,26.8 L34.8,26.2 L32.1,26.9 L32.1,26.9 L32.1,26.9 L31.9,25.4 L31,24.6 L27.6,25.6 L26.8,24.6 L26.3,24.5 L26.2,24.5 L26,26.7 L25.3,27.3 L25.9,29.1 L26,30.1 L24.8,30 L24.7,30.6 L23.6,32 L22.3,31.2 L21.2,32.1 L20,32 L19.3,32.5 L19.3,32.5 L19.2,32.6 L17.9,32.7 L17.3,34.2 L16,34.7 L15.2,35.3 L15.4,36.2 L15.2,36.3 L16.3,36.7 L17.4,36.2 L20.1,36.8 L20.1,37.3 L17.8,37.3 L17.3,38.1 L18.6,39.1 L18.3,39.8 L17.4,40.3 L17.6,41 L16.8,41 L18.3,42.4 L18.9,44.6 C19.4,44.6 19.5,44.7 19.6,44.7 C19.7,44.7 19.8,44.8 21.5,46.5 L22.8,46.8 L25.2,46.9 L25.2,46.9 L25.2,46.9 L25.2,46.9 Z" id="Shape" fill="#FF7377"></path>
                                <polygon id="Shape" fill="#D0011B" points="79.7 35.3 79.5 35.1 79.3 35 78 33.8 77.4 34.6 76.5 33.4 74.6 33.9 74.5 33.1 72.9 33.5 71.7 35 71.8 35.9 70.8 36.4 70.5 36.1 69.9 36.6 70.7 37.3 70.6 37.6 69.7 38.6 70.1 39.3 70.1 39.4 70 40.4 69.9 40.4 69.9 40.5 67.8 43.6 69.2 44.8 67.9 45.3 68.7 46.3 68.6 47.9 69 48.7 68.2 49.3 69.3 50.3 70.2 49.7 71.2 50.5 74.3 48.5 74.9 47.3 74.8 46.1 74.8 45.8 76.7 44.7 77 43.4 81.3 39.8 81.4 39.4 79.4 39.2 80.6 38.2 81.4 38 81.5 37.2 80.7 36.4 80.6 35.6 79.7 35.2"></polygon>
                                <polygon id="Shape" fill="#D0011B" points="72.8 50.1 71.2 51.1 70.2 50.3 69.2 50.9 67.5 49.3 67.5 49.3 67.5 49.3 67.7 49.1 68.3 48.5 68.2 48.2 65.6 48.2 65.3 50.4 64.5 51.4 62.8 50 61.1 51.7 59.1 51.5 58.3 50.7 57.9 50.7 57.7 53.1 56.7 54.1 57.4 55 57.2 55.8 58.7 58.6 58.4 59.8 60.5 59.5 60.8 60.3 61.5 60.2 62.3 61.8 62 63.3 61.3 63.3 61.1 64.1 60.6 64.2 60.7 65 57.6 66.3 58.4 69.3 59.1 69.8 59.2 70.6 60.3 71.1 60.7 70.3 62.1 70.6 62.1 71.1 63.8 70.9 63.8 70.8 64 70.8 64.4 70.8 64.4 71 65.2 71.4 67.9 70.6 67 72 67.9 71.7 69.3 72.8 70 72.2 70 72.2 70.1 72.1 70.5 72.3 70.7 72.1 70.2 71.4 69.4 71.1 68.5 70.3 69.2 69.4 69.3 69.4 69.3 69.3 70.5 69.3 70.6 69 69.8 68.6 70.6 67.6 70.6 67.6 70.7 67.6 71.5 67.6 72.3 66.2 72.4 66.2 72.4 66.2 73.1 66 73.7 65.6 73.7 65.6 73.8 65.5 75 65.3 75.9 65.7 76 64.9 74.7 64.4 74.8 62.9 74.9 62.9 74.9 62.9 76.4 63.4 76.4 63.4 78.3 62.5 78.3 62.6 80.2 62.4 81 61.7 81.8 61.7 81.8 60.3 82.2 59.8 81.2 59.2 80.9 57.6 79.5 56.5 79.6 55.1 81.1 54.7 81.3 53.6 79.9 52.5 79.2 51.3 80.3 50.9 80 49.8 77.4 49.6 76.4 50.4 76.3 51.5 74.2 52.6 73.8 52.6 73.5 51.7 74.9 50.5 74.4 49.1"></polygon>
                                <polygon id="Shape" fill="#D0011B" points="77.4 63.5 76.4 64 76.4 64 76.3 64 75.3 63.6 75.3 64 76.6 64.6 76.4 66.4 76.4 66.4 76.4 66.4 74.9 65.9 73.9 66.1 73.3 66.4 73.3 66.4 73.3 66.5 72.7 66.6 71.8 68.1 71.7 68.1 71.7 68.1 70.9 68.1 70.7 68.4 71.4 68.8 70.8 69.8 70.8 69.8 70.8 69.8 69.5 69.8 69.3 70.2 69.8 70.7 70.6 70.9 71.4 72.1 70.7 72.9 70.7 72.9 70.6 73 70.1 72.8 69.4 73.4 69.4 73.4 69.3 73.5 67.7 72.3 65.7 73 66.7 71.5 65.1 71.9 64.1 71.5 63.8 72.2 64.8 73.8 65 75 63.2 76.2 63 77.7 62.9 77.8 62.9 77.8 61.8 78 61.9 79 61.8 79 61.9 79 60.5 79.2 60.4 79.7 61.9 79.8 62.5 80.8 63.7 81.1 64.1 80.2 65.3 80.3 65.9 81.2 67.4 80.8 68.7 81.9 68 82.4 68.4 82.6 70.7 82.8 71.4 83.9 72.3 84.3 72.2 83.5 74.2 84.1 74.1 83.2 75.9 83.6 76.3 82.9 77.8 83.1 78.4 82.4 77.4 82.2 78.6 80.9 79.6 80.7 80.6 79.1 81.5 79.1 82.8 77.4 84.7 77.2 85.4 75.2 86.6 74.2 86.2 73.2 84.5 73.5 82.4 73 80.7 72 79.7 71.2 80.2 70.1 79.5 69.4 80 68 80.5 67.5 81.1 67.3 81 66.1 79.9 66 78.1 63.2"></polygon>
                                <polygon id="Shape" fill="#D0011B" points="84.1 20.5 82.6 21.1 80.8 20 79.6 20.7 77.6 17.9 76.8 18 76.1 17.4 74.2 18 72.5 16.8 70.8 17 70 16.7 69.5 17.1 68.3 16.8 67.1 20 66.9 21.6 67.7 22 67.3 24.6 66.4 24.6 66.8 25.7 67.7 26.1 70.3 28.3 70.2 29.3 71.9 29.6 71.9 29.8 71.9 31.4 71.9 31.5 71.5 31.9 72.7 33.2 74.8 32.7 74.9 33.6 76.6 33.2 77.3 34.1 77.8 33.3 79.5 34.8 81 32 81.2 30.5 82.1 29.5 81.6 29.3 81.3 27.4 82.7 25.8 83.2 24.8 82.7 24.4 81.5 24.8 80.5 23.2 81.6 21.5 83.2 22.5 84.7 22.3 85.1 21.2 85 20.4"></polygon>
                                <polygon id="Shape" fill="#FF7377" points="25.5 57.8 26.4 58.5 26.4 59.6 27.5 59.8 28.5 60.8 29 60.5 29.2 59.7 31 58.8 31 57.6 32.2 57.3 33 55.3 34.5 54.5 36.5 52.6 35.3 50.5 37.3 48.5 38.6 47.9 38.8 47.8 37.5 45.3 37.7 43.8 36.8 43.6 35.2 41.5 33.3 41.9 33.3 40 32.1 39.6 31.1 40 27.2 39.9 26.3 40.7 23.9 39.9 25 40.9 25.1 42 27 43.5 26.3 44.5 26.4 46.4 27.2 47.1 25.3 48.1 24.9 47.4 22.8 47.3 22.1 48.2 23.6 50.2 22.8 50.4 23.3 51.2 22.3 52.7 21.1 53.3 20.1 52.3 19 52 19.1 52.3 20.8 53.4 21.1 54.2 22.4 54.9 23.6 56.2 24.3 57.8"></polygon>
                                <polygon id="Shape" fill="#D0011B" points="82 37 82 37 82 37 82.2 37.7 82.8 38.4 83.1 38.1 83.9 37.9 85 36.5 84.4 35.3 85.6 32.7 85.3 32.1 87.8 24.8 89.1 23.8 89.5 22.5 86 21.7 85.6 21.8 85.6 21.8 85.5 21.8 85 23 83.1 23.2 81.7 22.3 81.1 23.3 81.7 24.3 82.8 23.9 83.8 24.7 83.1 26.1 81.8 27.6 82.1 29 82.9 29.4 81.6 30.7 81.4 32.2 80 34.8 81 35.3 81.2 36.2 82 36.9 82 36.9"></polygon>
                                <polygon id="Shape" fill="#FF7377" points="25.8 23.8 26.1 23.9 26.3 23.9 26.3 23.9 26.9 24 27 24.1 27 24.1 27 24.1 27.8 25 31.1 24 32.4 25.2 32.4 25.2 32.5 26.2 35 25.6 35.8 26.6 35.7 27.3 36.9 27.7 37.6 28.2 37.7 27.3 37.7 27.3 37.7 27.3 37.8 27.2 38.7 26.9 38.8 25.7 38.7 25.1 38.6 25.1 38.6 25.1 38.6 25.1 38.7 24.3 38.7 24.1 37.7 22.5 37.3 21.6 35.8 21.3 36.1 18.3 35.4 16.2 34.4 16.5 33 17 27.4 16 26.4 16 25.6 14 26.2 13.2 26.2 12.6 25.9 12.4 24.7 12.7 22.8 12.7 22.1 12.1 22 12.2 22.6 12.8 22.2 13.9 23.5 17.3 23.2 21.9 24.4 23.2 22.7 23.3 22.7 24 23.6 24.5 24.3 23.6 24.4 23.6"></polygon>
                                <path d="M25.4,81.5 L25.4,81.5 L25.4,81.5 L26.8,80.3 L27.2,79.9 L27.2,78.9 L26.7,78.6 L26.6,77.1 L24,77.2 L25.5,75.9 L25.4,73.4 L27.8,72.4 L28,73 L28.5,72.2 L28.5,72.2 L28.5,72.2 L28.6,72.2 L28.6,72.2 L30,72.3 L31.2,71.8 L31.3,71.8 L32.7,72.3 L33.1,72.1 L33.2,71.7 L34.6,71.5 L35,70.3 L34.3,69.7 L34.4,69 L35.5,69 L35.2,67.7 L36,67.1 L36,66.5 L37.2,66.3 L37.2,65.6 L38.7,63.2 L38.7,61.6 L37.3,60.1 L38.2,58.9 L38.2,58.7 L38.2,58.1 L38.2,58.1 L38.2,58.1 L37.8,58.1 L37.6,58.1 L37.6,58.1 L37.6,58.1 L37.6,58.1 L37.8,58 L36.3,56 L35.4,55.5 L34.6,55 L33.4,55.6 L32.6,57.7 L31.5,58 L31.5,59.1 L29.6,60 L29.4,60.7 L28.4,61.4 L27.1,60.1 L25.9,60 L25.9,58.8 L25.3,58.3 L24.4,58.3 L24.5,61.3 L24,61.4 L23.1,58.1 L21.6,56.5 L21.5,56 L21.3,56.2 C21.5,57.6 20.6,61.8 20.1,63.9 L20.5,63.6 L21.6,65.4 L19.7,65.4 L19.5,66.2 L18.4,72.2 L17.1,75.5 L16,76.9 L14.7,77.7 L13.7,77.9 L13.7,78 L14.5,78 L14.9,78.7 L15.7,78.2 L16.6,79.3 L16,81 L16.6,81.2 L17.5,80.3 L17.9,81.3 L21.3,82.8 L22.1,84.2 L24.3,84.3 L24.5,82.6 L24.5,82.2 L24.5,82.2 L24.5,82.2 L24.7,82.2 L25.4,82.3 L25.4,81.5 L25.4,81.5 L25.4,81.5 L25.4,81.5 Z" id="Shape" fill="#FF7377"></path>
                                <polygon id="Shape" fill="#FF7377" points="42.3 86.9 41.6 87 41.5 87 41.5 87 41.5 87 40.4 86.2 40.2 86 41.5 84.8 41.5 83.5 39.6 81.9 39.7 80.2 39.7 80.2 39.7 80.2 39.7 80.2 39.9 80.1 39.9 80.1 40.2 80.1 40.6 80.1 40.7 79.6 40.8 79.3 42 79.8 42.7 79.3 43.9 79.9 43.9 79.2 44 79.3 44 79.2 46.2 80 46.3 80 47.2 79.6 46.4 78.3 47.7 77.4 48.7 78 49.9 77.1 50.4 77.2 51.1 75.5 51.3 75.6 51.9 75.8 52.9 75.2 52.9 74.4 53.5 74 52.5 73.6 53 72.5 51.4 72 51.4 69.1 50.5 67.6 50.5 67.5 50.4 66.2 49.9 66.2 49 64.7 47.1 67.5 44.9 67.3 44.1 67 44.4 65.5 43.5 65.2 43.7 63.7 41 63.9 39.3 63.6 38 65.7 38 66.7 36.7 67 36.7 67.4 36 68 36.3 69.6 34.9 69.5 34.9 69.5 35.6 70.2 35.1 72 33.7 72.2 33.6 72.5 32.8 73 31.3 72.4 30.1 72.9 28.7 72.8 27.9 74.1 27.5 73.2 26 73.9 26.1 76.3 25.5 76.8 27.1 76.7 27.1 76.7 27.1 76.8 27.3 78.3 27.8 78.6 27.8 80 27.8 80.2 27.7 80.2 25.9 81.7 26 82.4 26 82.5 26 82.5 26 82.5 26 82.8 26 82.8 26 82.8 25.3 82.7 25.1 82.7 24.9 84.4 26.5 85.6 28.1 85.5 28.8 86.1 29.5 85.8 30.3 85.8 31.5 86.2 31.6 84.5 33.3 84.8 35.5 86.1 36.6 86 37.2 87.2 38.7 87.2 39.7 87.9 39.5 88.6 40.1 88.8 42.6 87.3"></polygon>
                                <path d="M61.2,77.7 L61.2,77.7 L61.2,77.7 L62.5,77.4 L62.7,76 L64.4,74.9 L64.3,74 L63.2,72.3 L63.6,71.5 L61.5,71.8 L61.6,71.2 L61,70.9 L60.5,71.8 L58.7,70.9 L58.7,70.1 L58,69.6 L57.1,66.3 L55.7,65.7 L55.7,65.1 L55.6,65.1 L55.2,66.1 L54.1,66.1 L54,65 L53.2,64.4 L52,65.2 L51,67.5 L51.8,68.9 L51.8,71.5 L53.6,72 L53.1,73.2 L54.5,73.8 L53.3,74.6 L53.3,75.4 L53.2,75.5 L53.2,75.5 L52,76.4 L51.4,76.1 L50.7,77.7 L50,77.7 L48.7,78.6 L47.7,78.1 L47,78.6 L47.8,79.9 L46.3,80.7 L46.1,80.6 L44.3,80 L44.2,80.7 L44.1,80.7 L44,80.5 L42.7,79.9 L42.1,80.3 L42.1,80.3 L42.1,80.3 L42,80.3 L42,80.3 L42,80.3 L41.2,80 L41.1,80.7 L41.1,80.7 L41.1,80.7 L40.3,80.7 L40.3,81.7 L42,83.2 L42,83.2 L42.1,83.3 L42.1,83.3 L42.1,85.1 L41,86 L41.7,86.5 L42.6,86.3 L42.6,86.3 L42.6,86.3 L42.6,86.3 L42.6,86.3 L42.7,86.4 L43.2,87.2 L43.3,87.4 L40.6,89.1 L41.5,90.4 L43.2,89.4 L44.2,90.1 L45.3,90.9 L46.3,90.1 L47.1,90.7 L48,89.8 L50.2,89.8 L50.7,90.2 L51,89.9 L50.5,89.2 L49.9,88.8 L49.7,86.2 C49.7,86.1 49.6,83.2 51.7,82.1 C51.8,82 52.4,81.6 53.6,81.7 C53.9,81.5 54.8,80.8 55.3,80.8 C55.6,80.3 56.9,78.7 58.8,78.8 L58.9,78.8 L59.3,79.7 L60,79.8 L60.1,79 L60.2,79 L60.2,79 L60.4,79 L60.4,79 L61.5,78.8 L61.2,77.7 L61.2,77.7 L61.2,77.7 L61.2,77.7 Z" id="Shape" fill="#D0011B"></path>
                            </g>
                        </g>
                    </g>
                </g>
            </g>
        </g>
    </g>
</svg>